<svg t="1615963381283" class="icon" viewBox="0 0 1024 1024" version="1.1" xmlns="http://www.w3.org/2000/svg" p-id="9030" width="16" height="16"><path d="M512 874.666667a32 32 0 0 1 32 32v64a32 32 0 0 1-64 0v-64A32 32 0 0 1 512 874.666667z m-256.426667-106.24a32 32 0 0 1 0 45.269333l-45.269333 45.248a32 32 0 0 1-45.248-45.226667l45.226667-45.269333a32 32 0 0 1 45.269333 0z m558.122667 0l45.248 45.269333a32 32 0 0 1-45.226667 45.248l-45.269333-45.226667a32 32 0 1 1 45.248-45.269333zM512 213.333333c164.949333 0 298.666667 133.717333 298.666667 298.666667s-133.717333 298.666667-298.666667 298.666667-298.666667-133.717333-298.666667-298.666667 133.717333-298.666667 298.666667-298.666667zM117.333333 480a32 32 0 0 1 0 64h-64a32 32 0 0 1 0-64h64z m853.333334 0a32 32 0 0 1 0 64h-64a32 32 0 0 1 0-64h64zM210.304 165.056l45.248 45.226667a32 32 0 1 1-45.248 45.269333L165.056 210.304a32 32 0 0 1 45.226667-45.248z m648.64 0a32 32 0 0 1 0 45.226667l-45.226667 45.269333a32 32 0 1 1-45.269333-45.248l45.248-45.248a32 32 0 0 1 45.248 0zM512 21.333333a32 32 0 0 1 32 32v64a32 32 0 0 1-64 0v-64A32 32 0 0 1 512 21.333333z" fill="#ffffff" p-id="9031"></path></svg>