<?xml version="1.0" standalone="no"?>
<!DOCTYPE svg PUBLIC "-//W3C//DTD SVG 1.1//EN" "http://www.w3.org/Graphics/SVG/1.1/DTD/svg11.dtd">
<svg t="1600571821723" class="icon" viewBox="0 0 1024 1024" version="1.1" xmlns="http://www.w3.org/2000/svg" p-id="3645" width="32" height="32">
    <defs>
        <style type="text/css"></style>
    </defs>
    <path d="M204.8 110.778182l307.2 307.2L819.2 111.709091a62.370909 62.370909 0 0 1 46.545455-18.618182 69.818182 69.818182 0 0 1 65.163636 65.163636 61.44 61.44 0 0 1-18.618182 44.683637L604.16 512 912.290909 821.061818c12.101818 11.729455 18.804364 27.927273 18.618182 44.683637a69.818182 69.818182 0 0 1-65.163636 65.163636 62.370909 62.370909 0 0 1-46.545455-18.618182L512 606.021818 205.730909 912.290909a62.370909 62.370909 0 0 1-46.545454 18.618182 69.818182 69.818182 0 0 1-66.094546-66.094546 61.44 61.44 0 0 1 18.618182-44.683636L419.84 512 110.778182 202.938182A61.44 61.44 0 0 1 93.090909 158.254545a69.818182 69.818182 0 0 1 65.163636-65.163636 62.370909 62.370909 0 0 1 46.545455 17.687273z" p-id="3646"></path>
</svg>