<?xml version="1.0" standalone="no"?>
<!DOCTYPE svg PUBLIC "-//W3C//DTD SVG 1.1//EN" "http://www.w3.org/Graphics/SVG/1.1/DTD/svg11.dtd">
<svg t="1551780896260" viewBox="0 0 1024 1024" version="1.1" xmlns="http://www.w3.org/2000/svg" p-id="2691"
    xmlns:xlink="http://www.w3.org/1999/xlink" width="128" height="128">
    <defs>
        <style type="text/css"></style>
    </defs>
    <path
        d="M511.504242 1023.500244C297.654661 1023.500244 123.689605 857.566266 123.689605 653.604857c0-67.527028 19.29258-133.633749 55.776765-191.145667L484.420467 14.109111C490.399547 5.309408 500.447641 0 511.210386 0c10.726762 0 20.781853 5.277423 26.791918 14.109111L842.785484 461.344734c37.169851 58.464453 56.5254 124.670126 56.5254 192.289109C899.310883 857.566266 725.344828 1023.500244 511.504242 1023.500244zM439.736285 450.603979c2.858604-2.854606 2.858604-7.483346 0-10.338952l-10.347947-10.338952c-2.856605-2.855606-7.490343-2.855606-10.347947 0l-46.566263 46.524283-46.565263-46.524283c-2.858604-2.855606-7.491342-2.855606-10.348947 0L305.210971 440.265027c-2.857605 2.855606-2.857605 7.484346 0 10.338952l46.566263 46.525283-46.566263 46.524283c-2.857605 2.855606-2.857605 7.483346 0 10.338952l10.347947 10.339951c2.857605 2.854606 7.490343 2.854606 10.348947 0l46.565263-46.525283 46.566263 46.525283c2.857605 2.854606 7.490343 2.854606 10.347947 0l10.347947-10.339951c2.858604-2.854606 2.858604-7.482347 0-10.338952l-46.565263-46.524283L439.736285 450.603979zM526.135098 672.586589c-99.309509 0-179.968125 71.579049-182.929679 160.835467 0 0 93.167508-50.261458 185.469439-50.261458 90.610756 0 180.389919 50.261458 180.389919 50.261458C706.103223 744.165638 625.444607 672.586589 526.135098 672.586589zM732.423371 450.603979c2.856605-2.854606 2.856605-7.483346 0-10.338952l-10.348947-10.338952c-2.857605-2.855606-7.490343-2.855606-10.347947 0l-46.567262 46.525283-46.566263-46.525283c-2.856605-2.855606-7.490343-2.855606-10.346948 0L597.898058 440.265027c-2.856605 2.855606-2.856605 7.484346 0 10.338952l46.567262 46.525283-46.567262 46.524283c-2.856605 2.855606-2.856605 7.483346 0 10.338952l10.348947 10.339951c2.855606 2.854606 7.489343 2.854606 10.346948 0l46.566263-46.525283 46.567262 46.525283c2.856605 2.854606 7.489343 2.854606 10.347947 0l10.348947-10.339951c2.856605-2.854606 2.856605-7.482347 0-10.338952l-46.566263-46.524283L732.423371 450.603979z"
        p-id="2692"></path>
</svg>