<?xml version="1.0" standalone="no"?>
<!DOCTYPE svg PUBLIC "-//W3C//DTD SVG 1.1//EN" "http://www.w3.org/Graphics/SVG/1.1/DTD/svg11.dtd">
<svg t="1551769149180" viewBox="0 0 1024 1024" version="1.1" xmlns="http://www.w3.org/2000/svg" p-id="4976" xmlns:xlink="http://www.w3.org/1999/xlink" width="32" height="32">
    <defs>
        <style type="text/css"></style>
    </defs>
    <path d="M227.556 312.889v-28.445h-85.334c-47.457 0-85.333 38.326-85.333 85.603v283.906c0 47.583 38.205 85.603 85.333 85.603h85.334V312.889z m56.888 415.289L512 910.222V113.778L284.444 295.822v432.356z m-56.888-45.511v56.889l254.317 211.93c47.86 39.885 87.016 21.699 87.016-40.984V113.498c0-62.718-38.958-81.033-87.016-40.985L227.556 284.444v56.89h-56.89c-31.637 0-56.888 25.234-56.888 56.364v228.604c0 30.71 25.47 56.365 56.889 56.365h56.889z m455.113-384.419l241.359-241.36 40.226 40.227-241.359 241.36-40.226-40.227z m0 424.645l241.359 241.36 40.226-40.227-241.359-241.36-40.226 40.227z m-0.002-267.782H967.11V512H682.667v-56.889z" p-id="4977"></path>
</svg>