<?xml version="1.0" standalone="no"?>
<!DOCTYPE svg PUBLIC "-//W3C//DTD SVG 1.1//EN" "http://www.w3.org/Graphics/SVG/1.1/DTD/svg11.dtd">
<svg t="1600568712752" class="icon" viewBox="0 0 1024 1024" version="1.1" xmlns="http://www.w3.org/2000/svg" p-id="1182" width="32" height="32">
    <defs>
        <style type="text/css"></style>
    </defs>
    <path d="M858.090667 554.602667a53.866667 53.866667 0 0 1 0-85.205334 96.448 96.448 0 0 0-71.232-172.010666 53.824 53.824 0 0 1-60.245334-60.245334 96.448 96.448 0 0 0-172.010666-71.253333 55.509333 55.509333 0 0 1-85.205334 0 96.448 96.448 0 0 0-172.010666 71.253333 53.824 53.824 0 0 1-60.245334 60.245334 96.448 96.448 0 0 0-71.253333 172.010666 53.866667 53.866667 0 0 1 0 85.205334 96.448 96.448 0 0 0 71.253333 172.010666 53.824 53.824 0 0 1 60.245334 60.245334 94.336 94.336 0 0 0 58.773333 101.397333A99.605333 99.605333 0 0 0 394.24 896a94.357333 94.357333 0 0 0 75.157333-37.909333 55.509333 55.509333 0 0 1 85.205334 0 96.448 96.448 0 0 0 172.010666-71.253334 53.824 53.824 0 0 1 60.245334-60.224 96.448 96.448 0 0 0 71.253333-172.010666z m-346.090667 106.666666A149.269333 149.269333 0 1 1 661.269333 512 149.44 149.44 0 0 1 512 661.269333z" p-id="1183"></path>
</svg>